<?xml version="1.0" encoding="utf-8"?>
<svg viewBox="0 0 6144 2048" width="6144" height="2048" xmlns="http://www.w3.org/2000/svg">
  <g id="g10" transform="matrix(1.333333, 0, 0, -1.333333, -399.438788, 2307.773716)">
    <g id="g12" transform="scale(0.1)">
      <path d="M 11668.799 10804.05 L 7543.819 12803.929 L 7543.819 7755.476 L 10971.835 6093.537 L 11044.26 8501.318 L 10605.039 8501.318 C 10554.002 8501.318 10512.638 8542.742 10512.638 8593.482 L 10512.638 9086.019 C 9728.422 9051.135 9094.922 8501.318 9094.922 8501.318 C 9094.922 9752.776 10512.638 10145.419 10512.638 10145.419 L 12619.385 10145.419 C 12670.126 10145.419 12711.551 10104.192 12711.551 10053.255 L 12711.551 9906.782 C 12711.551 9809.067 12791.031 9729.785 12888.744 9729.785 C 12937.501 9729.785 12981.504 9749.606 13013.615 9781.912 C 13045.921 9813.427 13065.741 9858.021 13065.741 9906.782 L 13065.741 10054.84 C 13065.741 10104.787 13106.372 10145.419 13156.319 10145.419 L 13361.857 10145.419 C 13493.861 10145.419 13601.09 10038.191 13601.09 9906.187 L 13601.09 8740.55 C 13601.09 8608.744 13493.861 8501.318 13361.857 8501.318 L 13156.319 8501.318 C 13106.372 8501.318 13065.741 8542.147 13065.741 8591.896 L 13065.741 8739.955 C 13065.741 8837.67 12986.261 8916.951 12888.744 8916.951 C 12839.788 8916.951 12795.985 8897.132 12763.678 8865.22 C 12731.568 8832.913 12711.551 8788.91 12711.551 8739.955 L 12711.551 8593.482 C 12711.551 8542.742 12670.126 8501.318 12619.385 8501.318 L 11105.603 8501.318 L 12184.724 8501.296 L 12253.502 6039.227 L 15793.821 7755.476 L 15793.821 12803.929 L 11668.799 10804.05" style="fill-opacity: 1; fill-rule: nonzero; stroke: none; fill: rgb(255, 255, 255);" id="path20"/>
      <path d="M 15238.254 12751.206 L 15238.254 13217.381 L 11668.799 11217.503 L 8099.464 13217.381 L 8099.464 12751.206 L 11668.799 11020.687 L 15238.254 12751.206" style="fill-opacity: 1; fill-rule: nonzero; stroke: none; fill: rgb(255, 255, 255);" id="path22"/>
    </g>
  </g>
  <path d="M 2212.3127885298295 1258.3599853515625 L 2212.3127885298295 908.2327126242898 L 2331.7572487571024 908.2327126242898 L 2331.7572487571024 974.7933660333807 L 2335.4044078480115 974.7933660333807 Q 2346.345885120739 941.9689342151989 2372.7877885298294 922.8213489879262 Q 2399.2296919389205 903.6737637606534 2435.7012828480115 903.6737637606534 Q 2472.6287686434657 903.6737637606534 2499.2986194957384 923.1632701526989 Q 2525.9684703480116 942.6527765447443 2531.439208984375 974.7933660333807 L 2535.086368075284 974.7933660333807 Q 2543.976318359375 942.6527765447443 2572.9256436434657 923.1632701526989 Q 2601.874968927557 903.6737637606534 2640.8539817116475 903.6737637606534 Q 2691.2303666548296 903.6737637606534 2722.5731400923296 936.0423006924716 Q 2753.9159135298296 968.4108376242898 2753.9159135298296 1022.2064342151989 L 2753.9159135298296 1258.3599853515625 L 2628.088924893466 1258.3599853515625 L 2628.088924893466 1054.1190762606534 Q 2628.088924893466 1031.0963844992898 2616.4636052911933 1017.9894065163353 Q 2604.83828568892 1004.8824285333807 2585.234805575284 1004.8824285333807 Q 2565.8592729048296 1004.8824285333807 2554.5758744673294 1017.9894065163353 Q 2543.2924760298297 1031.0963844992898 2543.2924760298297 1054.1190762606534 L 2543.2924760298297 1258.3599853515625 L 2422.9362260298294 1258.3599853515625 L 2422.9362260298294 1054.1190762606534 Q 2422.9362260298294 1031.0963844992898 2411.310906427557 1017.9894065163353 Q 2399.685586825284 1004.8824285333807 2380.0821067116476 1004.8824285333807 Q 2367.089102450284 1004.8824285333807 2357.74325727983 1010.8090620561079 Q 2348.397412109375 1016.7356955788352 2343.268594637784 1027.7911465731534 Q 2338.139777166193 1038.8465975674717 2338.139777166193 1054.1190762606534 L 2338.139777166193 1258.3599853515625 Z M 2984.59375 1264.7425137606533 Q 2927.6068892045455 1264.7425137606533 2887.0322443181817 1242.0617431640626 Q 2846.4575994318184 1219.3809725674716 2824.8025923295454 1178.692353959517 Q 2803.147585227273 1138.0037353515625 2803.147585227273 1084.2081387606534 Q 2803.147585227273 1030.4125421697443 2824.8025923295454 989.7239235617898 Q 2846.4575994318184 949.0353049538353 2887.0322443181817 926.3545343572443 Q 2927.6068892045455 903.6737637606534 2984.59375 903.6737637606534 Q 3041.5806107954545 903.6737637606534 3082.1552556818183 926.3545343572443 Q 3122.7299005681816 949.0353049538353 3144.3849076704546 989.7239235617898 Q 3166.039914772727 1030.4125421697443 3166.039914772727 1084.2081387606534 Q 3166.039914772727 1138.0037353515625 3144.3849076704546 1178.692353959517 Q 3122.7299005681816 1219.3809725674716 3082.1552556818183 1242.0617431640626 Q 3041.5806107954545 1264.7425137606533 2984.59375 1264.7425137606533 Z M 2985.5055397727274 1171.7399569424715 Q 3001.4618607954544 1171.7399569424715 3013.087180397727 1161.026427112926 Q 3024.7125 1150.3128972833806 3031.095028409091 1130.4814697265624 Q 3037.4775568181817 1110.6500421697442 3037.4775568181817 1083.2963489879262 Q 3037.4775568181817 1055.714708362926 3031.095028409091 1035.997254527699 Q 3024.7125 1016.2798006924716 3013.087180397727 1005.5662708629261 Q 3001.4618607954544 994.8527410333807 2985.5055397727274 994.8527410333807 Q 2968.6374289772725 994.8527410333807 2956.556214488636 1005.5662708629261 Q 2944.475 1016.2798006924716 2938.092471590909 1035.997254527699 Q 2931.7099431818183 1055.714708362926 2931.7099431818183 1083.2963489879262 Q 2931.7099431818183 1110.6500421697442 2938.092471590909 1130.4814697265624 Q 2944.475 1150.3128972833806 2956.556214488636 1161.026427112926 Q 2968.6374289772725 1171.7399569424715 2985.5055397727274 1171.7399569424715 Z M 3343.8264692826706 1262.9189342151988 Q 3306.443088600852 1262.9189342151988 3275.100315163352 1243.3154541015624 Q 3243.757541725852 1223.711973987926 3224.951877663352 1183.821171431108 Q 3206.146213600852 1143.9303688742898 3206.146213600852 1083.2963489879262 Q 3206.146213600852 1019.9269597833807 3225.8636674360796 980.2641046697443 Q 3245.581121271307 940.601249556108 3276.923894708807 922.1375066583807 Q 3308.266668146307 903.6737637606534 3342.914679509943 903.6737637606534 Q 3368.9006880326706 903.6737637606534 3388.5041681463067 912.6776877663352 Q 3408.1076482599433 921.681611772017 3421.3285999644886 936.6121693004261 Q 3434.549551669034 951.5427268288352 3441.3879749644884 969.3226273970171 L 3443.211554509943 969.3226273970171 L 3443.211554509943 791.5236217151989 L 3569.038543146307 791.5236217151989 L 3569.038543146307 1258.3599853515625 L 3444.1233442826706 1258.3599853515625 L 3444.1233442826706 1200.9172296697443 L 3441.3879749644884 1200.9172296697443 Q 3434.09365678267 1218.697130237926 3420.530783913352 1232.715897993608 Q 3406.9679110440343 1246.7346657492897 3387.7063520951706 1254.8267999822442 Q 3368.444793146307 1262.9189342151988 3343.8264692826706 1262.9189342151988 Z M 3390.3277476917615 1166.2692183061079 Q 3407.6517533735796 1166.2692183061079 3420.074889026989 1156.1255570845171 Q 3432.4980246803975 1145.9818958629262 3439.222474254261 1127.404179243608 Q 3445.946923828125 1108.82646262429 3445.946923828125 1083.2963489879262 Q 3445.946923828125 1057.3103404651988 3439.222474254261 1038.7326238458807 Q 3432.4980246803975 1020.1549072265625 3420.074889026989 1010.2391934481534 Q 3407.6517533735796 1000.3234796697443 3390.3277476917615 1000.3234796697443 Q 3373.0037420099434 1000.3234796697443 3360.808553799716 1010.2391934481534 Q 3348.6133655894887 1020.1549072265625 3342.1168634588066 1038.7326238458807 Q 3335.620361328125 1057.3103404651988 3335.620361328125 1083.2963489879262 Q 3335.620361328125 1109.2823575106534 3342.1168634588066 1127.8600741299715 Q 3348.6133655894887 1146.43779074929 3360.808553799716 1156.353504527699 Q 3373.0037420099434 1166.2692183061079 3390.3277476917615 1166.2692183061079 Z M 3951.0758522727274 1022.2064342151989 L 3835.2785511363636 1022.2064342151989 Q 3834.366761363636 1011.4929043856534 3827.756285511364 1003.7426913174716 Q 3821.145809659091 995.9924782492898 3810.774200994318 991.7754505504262 Q 3800.4025923295453 987.5584228515625 3787.8654829545453 987.5584228515625 Q 3771.681214488636 987.5584228515625 3760.0558948863636 993.4850563742898 Q 3748.430575284091 999.4116898970171 3748.6585227272726 1010.3531671697443 Q 3748.430575284091 1018.1033802379261 3755.3829723011363 1024.713856090199 Q 3762.3353693181816 1031.3243319424716 3782.394744318182 1034.9714910333807 L 3853.514346590909 1047.7365478515626 Q 3907.309943181818 1057.5382879083807 3933.637872869318 1080.6749533913353 Q 3959.9658025568183 1103.8116188742897 3960.19375 1142.562684215199 Q 3959.9658025568183 1179.946064897017 3937.968874289773 1207.4137318004261 Q 3915.971946022727 1234.8813987038352 3878.0186967329546 1249.8119562322443 Q 3840.0654474431817 1264.7425137606533 3791.5126420454544 1264.7425137606533 Q 3711.2751420454547 1264.7425137606533 3666.0275745738636 1231.9180819424716 Q 3620.7800071022725 1199.0936501242898 3615.5372159090907 1145.2980535333807 L 3740.452414772727 1145.2980535333807 Q 3742.959836647727 1161.9382168856534 3756.978604403409 1170.9421408913352 Q 3770.997372159091 1179.946064897017 3792.424431818182 1179.946064897017 Q 3809.7484375 1179.946064897017 3821.0318359375 1174.0194313742898 Q 3832.315234375 1168.0927978515624 3832.543181818182 1157.151320578835 Q 3832.315234375 1147.1216330788352 3822.627468039773 1141.1949995561079 Q 3812.9397017045453 1135.2683660333807 3792.424431818182 1131.6212069424716 L 3730.422727272727 1120.6797296697443 Q 3676.855078125 1111.3338844992898 3650.1852272727274 1085.1199285333807 Q 3623.5153764204547 1058.9059725674715 3623.7433238636363 1017.6474853515625 Q 3623.5153764204547 981.1758944424716 3643.0048828125 955.7597545276989 Q 3662.4943892045453 930.3436146129261 3698.8520063920455 917.0086891867898 Q 3735.209623579545 903.6737637606534 3785.1301136363636 903.6737637606534 Q 3861.036612215909 903.6737637606534 3904.916495028409 935.1305109197443 Q 3948.796377840909 966.5872580788352 3951.0758522727274 1022.2064342151989 Z M 4134.352179509943 791.5236217151989 L 4134.352179509943 1258.3599853515625 L 4008.5251908735795 1258.3599853515625 L 4008.5251908735795 791.5236217151989 Z M 4198.175337357955 1258.3599853515625 L 4198.175337357955 908.2327126242898 L 4324.002325994318 908.2327126242898 L 4324.002325994318 1258.3599853515625 Z M 4261.316779119318 871.7611217151989 Q 4235.558718039772 871.7611217151989 4217.322922585227 854.8930109197443 Q 4199.087127130681 838.0249001242898 4199.087127130681 814.3183660333807 Q 4199.087127130681 790.6118319424716 4217.322922585227 773.7437211470171 Q 4235.558718039772 756.8756103515625 4261.088831676137 756.8756103515625 Q 4286.846892755681 756.8756103515625 4304.968714488637 773.7437211470171 Q 4323.090536221591 790.6118319424716 4323.090536221591 814.3183660333807 Q 4323.090536221591 838.0249001242898 4304.968714488637 854.8930109197443 Q 4286.846892755681 871.7611217151989 4261.316779119318 871.7611217151989 Z M 4514.564018110796 1262.9189342151988 Q 4477.180637428977 1262.9189342151988 4445.837863991477 1243.3154541015624 Q 4414.495090553977 1223.711973987926 4395.689426491477 1183.821171431108 Q 4376.883762428977 1143.9303688742898 4376.883762428977 1083.2963489879262 Q 4376.883762428977 1019.9269597833807 4396.601216264205 980.2641046697443 Q 4416.318670099432 940.601249556108 4447.661443536932 922.1375066583807 Q 4479.004216974432 903.6737637606534 4513.652228338068 903.6737637606534 Q 4539.638236860796 903.6737637606534 4559.241716974432 912.6776877663352 Q 4578.845197088068 921.681611772017 4592.066148792614 936.6121693004261 Q 4605.287100497159 951.5427268288352 4612.125523792613 969.3226273970171 L 4613.949103338068 969.3226273970171 L 4613.949103338068 791.5236217151989 L 4739.776091974431 791.5236217151989 L 4739.776091974431 1258.3599853515625 L 4614.860893110796 1258.3599853515625 L 4614.860893110796 1200.9172296697443 L 4612.125523792613 1200.9172296697443 Q 4604.831205610795 1218.697130237926 4591.268332741477 1232.715897993608 Q 4577.705459872159 1246.7346657492897 4558.443900923296 1254.8267999822442 Q 4539.182341974431 1262.9189342151988 4514.564018110796 1262.9189342151988 Z M 4561.065296519886 1166.2692183061079 Q 4578.389302201705 1166.2692183061079 4590.812437855114 1156.1255570845171 Q 4603.235573508523 1145.9818958629262 4609.960023082386 1127.404179243608 Q 4616.68447265625 1108.82646262429 4616.68447265625 1083.2963489879262 Q 4616.68447265625 1057.3103404651988 4609.960023082386 1038.7326238458807 Q 4603.235573508523 1020.1549072265625 4590.812437855114 1010.2391934481534 Q 4578.389302201705 1000.3234796697443 4561.065296519886 1000.3234796697443 Q 4543.741290838068 1000.3234796697443 4531.546102627841 1010.2391934481534 Q 4519.350914417613 1020.1549072265625 4512.854412286932 1038.7326238458807 Q 4506.35791015625 1057.3103404651988 4506.35791015625 1083.2963489879262 Q 4506.35791015625 1109.2823575106534 4512.854412286932 1127.8600741299715 Q 4519.350914417613 1146.43779074929 4531.546102627841 1156.353504527699 Q 4543.741290838068 1166.2692183061079 4561.065296519886 1166.2692183061079 Z M 4969.544753196023 1264.7425137606533 Q 4913.469682173295 1264.7425137606533 4873.009011008523 1243.2014803799716 Q 4832.54833984375 1221.66044699929 4810.779359019886 1181.1997758345171 Q 4789.010378196022 1140.7391046697444 4789.010378196022 1084.2081387606534 Q 4789.010378196022 1029.9566472833808 4810.893332741477 989.382002397017 Q 4832.776287286932 948.8073575106534 4872.66708984375 926.2405606356534 Q 4912.557892400569 903.6737637606534 4966.80938387784 903.6737637606534 Q 5006.472238991477 903.6737637606534 5038.612828480113 915.9829256924716 Q 5070.75341796875 928.2920876242897 5093.548162286932 951.6567005504262 Q 5116.342906605114 975.0213134765625 5128.652068536931 1008.3016401811079 Q 5140.96123046875 1041.5819668856534 5140.96123046875 1083.2963489879262 L 5140.96123046875 1112.473621715199 L 4828.217338423296 1112.473621715199 L 4828.217338423296 1043.177598987926 L 5025.163929332386 1043.177598987926 Q 5024.935981889204 1028.1330677379262 5017.527689985795 1016.6217218572443 Q 5010.119398082386 1005.1103759765625 4997.696262428977 998.6138738458807 Q 4985.273126775568 992.1173717151989 4969.544753196023 992.1173717151989 Q 4954.27227450284 992.1173717151989 4941.507217684659 998.6138738458807 Q 4928.742160866477 1005.1103759765625 4921.105921519887 1016.5077481356534 Q 4913.469682173295 1027.9051202947444 4913.013787286932 1043.177598987926 L 4913.013787286932 1117.9443603515624 Q 4913.013787286932 1134.812471147017 4920.080158025568 1148.0334228515626 Q 4927.146528764205 1161.254374556108 4940.36748046875 1168.776640181108 Q 4953.588432173296 1176.298905806108 4972.280122514205 1176.298905806108 Q 4985.273126775568 1176.298905806108 4996.100630326705 1172.651746715199 Q 5006.928133877841 1169.0045876242898 5014.678346946022 1162.0521906072443 Q 5022.428560014205 1155.099793590199 5026.075719105113 1145.2980535333807 L 5140.96123046875 1145.2980535333807 Q 5135.034596946023 1181.7696444424716 5112.923694957386 1208.5534690163352 Q 5090.81279296875 1235.337293590199 5054.45517578125 1250.039903675426 Q 5018.09755859375 1264.7425137606533 4969.544753196023 1264.7425137606533 Z M 5512.050949928977 1022.2064342151989 L 5396.253648792614 1022.2064342151989 Q 5395.341859019886 1011.4929043856534 5388.731383167614 1003.7426913174716 Q 5382.12090731534 995.9924782492898 5371.749298650569 991.7754505504262 Q 5361.377689985796 987.5584228515625 5348.840580610796 987.5584228515625 Q 5332.656312144886 987.5584228515625 5321.030992542614 993.4850563742898 Q 5309.405672940341 999.4116898970171 5309.633620383523 1010.3531671697443 Q 5309.405672940341 1018.1033802379261 5316.358069957387 1024.713856090199 Q 5323.310466974432 1031.3243319424716 5343.369841974431 1034.9714910333807 L 5414.489444247159 1047.7365478515626 Q 5468.285040838068 1057.5382879083807 5494.612970525568 1080.6749533913353 Q 5520.940900213068 1103.8116188742897 5521.16884765625 1142.562684215199 Q 5520.940900213068 1179.946064897017 5498.943971946022 1207.4137318004261 Q 5476.947043678977 1234.8813987038352 5438.993794389205 1249.8119562322443 Q 5401.040545099432 1264.7425137606533 5352.487739701704 1264.7425137606533 Q 5272.250239701704 1264.7425137606533 5227.002672230114 1231.9180819424716 Q 5181.755104758523 1199.0936501242898 5176.512313565341 1145.2980535333807 L 5301.427512428977 1145.2980535333807 Q 5303.934934303978 1161.9382168856534 5317.953702059659 1170.9421408913352 Q 5331.97246981534 1179.946064897017 5353.399529474432 1179.946064897017 Q 5370.72353515625 1179.946064897017 5382.00693359375 1174.0194313742898 Q 5393.29033203125 1168.0927978515624 5393.518279474431 1157.151320578835 Q 5393.29033203125 1147.1216330788352 5383.602565696023 1141.1949995561079 Q 5373.914799360796 1135.2683660333807 5353.399529474432 1131.6212069424716 L 5291.397824928978 1120.6797296697443 Q 5237.83017578125 1111.3338844992898 5211.160324928977 1085.1199285333807 Q 5184.490474076704 1058.9059725674715 5184.718421519887 1017.6474853515625 Q 5184.490474076704 981.1758944424716 5203.97998046875 955.7597545276989 Q 5223.469486860796 930.3436146129261 5259.827104048295 917.0086891867898 Q 5296.184721235795 903.6737637606534 5346.105211292614 903.6737637606534 Q 5422.011709872159 903.6737637606534 5465.891592684659 935.1305109197443 Q 5509.771475497159 966.5872580788352 5512.050949928977 1022.2064342151989 Z" transform="matrix(1, 0, 0, 1, 0, 0)" style="fill: rgb(255, 255, 255); white-space: pre;"/>
</svg>