<?xml version="1.0" encoding="utf-8"?>
<svg viewBox="0 0 2048 2048" width="2048" height="2048" xmlns="http://www.w3.org/2000/svg">
  <g id="g10" transform="matrix(1.333333, 0, 0, -1.333333, -531.842293, 2307.773472)">
    <g id="g12" transform="scale(0.1)">
      <path d="M 11668.782 11766.023 L 4168.818 15402.168 L 4168.818 6223.162 L 10401.574 3201.454 L 10533.257 7579.238 L 9734.673 7579.238 C 9641.879 7579.238 9566.671 7654.554 9566.671 7746.81 L 9566.671 8642.331 C 8140.823 8578.906 6989.005 7579.238 6989.005 7579.238 C 6989.005 9854.616 9566.671 10568.512 9566.671 10568.512 L 13397.121 10568.512 C 13489.376 10568.512 13564.695 10493.555 13564.695 10400.942 L 13564.695 10134.627 C 13564.695 9956.964 13709.204 9812.815 13886.863 9812.815 C 13975.512 9812.815 14055.518 9848.853 14113.902 9907.591 C 14172.64 9964.891 14208.676 10045.97 14208.676 10134.627 L 14208.676 10403.823 C 14208.676 10494.636 14282.551 10568.512 14373.364 10568.512 L 14747.068 10568.512 C 14987.075 10568.512 15182.038 10373.553 15182.038 10133.546 L 15182.038 8014.206 C 15182.038 7774.558 14987.075 7579.238 14747.068 7579.238 L 14373.364 7579.238 C 14282.551 7579.238 14208.676 7653.473 14208.676 7743.925 L 14208.676 8013.123 C 14208.676 8190.786 14064.167 8334.935 13886.863 8334.935 C 13797.853 8334.935 13718.21 8298.9 13659.471 8240.879 C 13601.088 8182.139 13564.695 8102.133 13564.695 8013.123 L 13564.695 7746.81 C 13564.695 7654.554 13489.376 7579.238 13397.121 7579.238 L 10644.789 7579.238 L 12606.827 7579.198 L 12731.879 3102.708 L 19168.821 6223.162 L 19168.821 15402.168 L 11668.782 11766.023" style="fill-opacity: 1; fill-rule: nonzero; stroke: none; fill: rgb(24, 24, 27);" id="path20"/>
      <path d="M 18158.7 15306.307 L 18158.7 16153.898 L 11668.782 12517.756 L 5179.081 16153.898 L 5179.081 15306.307 L 11668.782 12159.908 L 18158.7 15306.307" style="fill-opacity: 1; fill-rule: nonzero; stroke: none; fill: rgb(24, 24, 27);" id="path22"/>
    </g>
  </g>
</svg>