<?xml version="1.0" encoding="utf-8"?>
<svg viewBox="0 0 2048 2048" width="2048" height="2048" xmlns="http://www.w3.org/2000/svg">
  <g id="g10" transform="matrix(1.333333, 0, 0, -1.333333, -531.842293, 2307.773472)">
    <g id="g12" transform="scale(0.1)">
      <path d="M 11668.799 10804.05 L 7543.819 12803.929 L 7543.819 7755.476 L 10971.835 6093.537 L 11044.26 8501.318 L 10605.039 8501.318 C 10554.002 8501.318 10512.638 8542.742 10512.638 8593.482 L 10512.638 9086.019 C 9728.422 9051.135 9094.922 8501.318 9094.922 8501.318 C 9094.922 9752.776 10512.638 10145.419 10512.638 10145.419 L 12619.385 10145.419 C 12670.126 10145.419 12711.551 10104.192 12711.551 10053.255 L 12711.551 9906.782 C 12711.551 9809.067 12791.031 9729.785 12888.744 9729.785 C 12937.501 9729.785 12981.504 9749.606 13013.615 9781.912 C 13045.921 9813.427 13065.741 9858.021 13065.741 9906.782 L 13065.741 10054.84 C 13065.741 10104.787 13106.372 10145.419 13156.319 10145.419 L 13361.857 10145.419 C 13493.861 10145.419 13601.09 10038.191 13601.09 9906.187 L 13601.09 8740.55 C 13601.09 8608.744 13493.861 8501.318 13361.857 8501.318 L 13156.319 8501.318 C 13106.372 8501.318 13065.741 8542.147 13065.741 8591.896 L 13065.741 8739.955 C 13065.741 8837.67 12986.261 8916.951 12888.744 8916.951 C 12839.788 8916.951 12795.985 8897.132 12763.678 8865.22 C 12731.568 8832.913 12711.551 8788.91 12711.551 8739.955 L 12711.551 8593.482 C 12711.551 8542.742 12670.126 8501.318 12619.385 8501.318 L 11105.603 8501.318 L 12184.724 8501.296 L 12253.502 6039.227 L 15793.821 7755.476 L 15793.821 12803.929 L 11668.799 10804.05" style="fill-opacity: 1; fill-rule: nonzero; stroke: none; fill: rgb(255, 255, 255);" id="path20"/>
      <path d="M 15238.254 12751.206 L 15238.254 13217.381 L 11668.799 11217.503 L 8099.464 13217.381 L 8099.464 12751.206 L 11668.799 11020.687 L 15238.254 12751.206" style="fill-opacity: 1; fill-rule: nonzero; stroke: none; fill: rgb(255, 255, 255);" id="path22"/>
    </g>
  </g>
</svg>